<svg id="Download_on_the_App_Store_Badge" xmlns="http://www.w3.org/2000/svg" width="134" height="40" viewBox="0 0 134 40">
  <rect id="Rectangle_415" data-name="Rectangle 415" width="134" height="40" rx="3" fill="rgba(255,255,255,0.23)"/>
  <g id="Group_1441" data-name="Group 1441" transform="translate(12.742 6.193)">
    <g id="Group_1440" data-name="Group 1440">
      <path id="Path_495" data-name="Path 495" d="M30.06,19.755a5.774,5.774,0,0,1,2.75-4.845,5.914,5.914,0,0,0-4.658-2.518c-1.959-.206-3.86,1.172-4.858,1.172-1.018,0-2.555-1.152-4.211-1.119a6.2,6.2,0,0,0-5.219,3.183c-2.257,3.908-.574,9.65,1.589,12.808,1.082,1.547,2.346,3.274,4,3.213,1.619-.067,2.223-1.032,4.177-1.032,1.935,0,2.5,1.032,4.19.993,1.737-.028,2.831-1.554,3.875-3.115a12.782,12.782,0,0,0,1.772-3.609,5.582,5.582,0,0,1-3.407-5.131Z" transform="translate(-12.792 -6.241)" fill="#fff"/>
      <path id="Path_496" data-name="Path 496" d="M26.913,10.29a5.683,5.683,0,0,0,1.3-4.073A5.789,5.789,0,0,0,24.47,8.153a5.409,5.409,0,0,0-1.335,3.923,4.782,4.782,0,0,0,3.778-1.786Z" transform="translate(-12.832 -6.217)" fill="#fff"/>
    </g>
  </g>
  <g id="Group_1442" data-name="Group 1442" transform="translate(42.243 17.93)">
    <path id="Path_497" data-name="Path 497" d="M53.6,31.452H51.339L50.1,27.558H45.793l-1.18,3.894h-2.2L46.677,18.2h2.636Zm-3.875-5.527L48.6,22.464q-.178-.53-.668-2.5H47.9q-.2.846-.63,2.5l-1.1,3.461Z" transform="translate(-42.41 -18.002)" fill="#fff"/>
    <path id="Path_498" data-name="Path 498" d="M64.626,26.569a5.432,5.432,0,0,1-1.318,3.854,3.853,3.853,0,0,1-2.93,1.259,2.93,2.93,0,0,1-2.714-1.357h-.04V35.36H55.5V25.054q0-1.533-.079-3.147h1.868l.119,1.515h.04a3.778,3.778,0,0,1,6.047-.375,5.266,5.266,0,0,1,1.131,3.522Zm-2.163.078a3.935,3.935,0,0,0-.63-2.3,2.174,2.174,0,0,0-1.849-.944,2.208,2.208,0,0,0-1.425.521,2.416,2.416,0,0,0-.836,1.368,2.78,2.78,0,0,0-.1.647v1.594a2.554,2.554,0,0,0,.639,1.761,2.12,2.12,0,0,0,1.661.718,2.174,2.174,0,0,0,1.868-.924,4.068,4.068,0,0,0,.671-2.441Z" transform="translate(-42.461 -18.016)" fill="#fff"/>
    <path id="Path_499" data-name="Path 499" d="M75.663,26.569a5.428,5.428,0,0,1-1.319,3.854,3.85,3.85,0,0,1-2.929,1.259A2.928,2.928,0,0,1,68.7,30.325h-.04V35.36H66.538V25.054q0-1.533-.079-3.147h1.868l.119,1.515h.04a3.779,3.779,0,0,1,6.048-.375A5.281,5.281,0,0,1,75.663,26.569Zm-2.163.078a3.935,3.935,0,0,0-.631-2.3,2.171,2.171,0,0,0-1.848-.944,2.211,2.211,0,0,0-1.426.521,2.415,2.415,0,0,0-.835,1.368,2.835,2.835,0,0,0-.1.647v1.594a2.562,2.562,0,0,0,.637,1.761,2.124,2.124,0,0,0,1.663.718,2.174,2.174,0,0,0,1.868-.924A4.068,4.068,0,0,0,73.5,26.647Z" transform="translate(-42.505 -18.016)" fill="#fff"/>
    <path id="Path_500" data-name="Path 500" d="M88.007,27.734a3.533,3.533,0,0,1-1.177,2.753,5.218,5.218,0,0,1-3.611,1.16,6.32,6.32,0,0,1-3.435-.826l.492-1.77a5.821,5.821,0,0,0,3.07.847,2.9,2.9,0,0,0,1.87-.542,1.769,1.769,0,0,0,.667-1.448,1.846,1.846,0,0,0-.551-1.359A5.12,5.12,0,0,0,83.5,25.524q-3.481-1.3-3.48-3.8a3.363,3.363,0,0,1,1.22-2.678A4.81,4.81,0,0,1,84.487,18a6.434,6.434,0,0,1,3.008.63l-.531,1.731a5.219,5.219,0,0,0-2.537-.61,2.568,2.568,0,0,0-1.749.551,1.574,1.574,0,0,0-.531,1.2,1.62,1.62,0,0,0,.609,1.3,6.878,6.878,0,0,0,1.928,1.023A6.542,6.542,0,0,1,87.2,25.436a3.367,3.367,0,0,1,.807,2.3Z" transform="translate(-42.557 -18.001)" fill="#fff"/>
    <path id="Path_501" data-name="Path 501" d="M95.065,23.492H92.724v4.641q0,1.771,1.239,1.77a3.777,3.777,0,0,0,.943-.1l.059,1.613a4.811,4.811,0,0,1-1.651.235,2.548,2.548,0,0,1-1.967-.767,3.768,3.768,0,0,1-.708-2.577V23.49H89.244V21.9h1.394V20.15l2.086-.63V21.9h2.341v1.6Z" transform="translate(-42.594 -18.007)" fill="#fff"/>
    <path id="Path_502" data-name="Path 502" d="M105.654,26.608a5.243,5.243,0,0,1-1.259,3.619,4.5,4.5,0,0,1-3.5,1.455,4.274,4.274,0,0,1-3.352-1.4,5.082,5.082,0,0,1-1.249-3.52,5.192,5.192,0,0,1,1.288-3.638,4.457,4.457,0,0,1,3.47-1.416,4.365,4.365,0,0,1,3.383,1.4,5.025,5.025,0,0,1,1.219,3.5Zm-2.2.069a4.3,4.3,0,0,0-.57-2.268,2.1,2.1,0,0,0-1.906-1.143,2.129,2.129,0,0,0-1.947,1.143,4.382,4.382,0,0,0-.57,2.308,4.293,4.293,0,0,0,.57,2.267,2.17,2.17,0,0,0,3.835-.02,4.315,4.315,0,0,0,.585-2.288Z" transform="translate(-42.622 -18.016)" fill="#fff"/>
    <path id="Path_503" data-name="Path 503" d="M112.6,23.775a3.687,3.687,0,0,0-.669-.059,2.007,2.007,0,0,0-1.731.847,3.182,3.182,0,0,0-.531,1.888v5.015h-2.123l.02-6.548q0-1.652-.08-3.009h1.85l.078,1.829h.059a3.269,3.269,0,0,1,1.062-1.514,2.568,2.568,0,0,1,1.535-.512,3.41,3.41,0,0,1,.531.039Z" transform="translate(-42.666 -18.016)" fill="#fff"/>
    <path id="Path_504" data-name="Path 504" d="M122.122,26.234a4.981,4.981,0,0,1-.078.963h-6.371a2.773,2.773,0,0,0,.924,2.164,3.156,3.156,0,0,0,2.084.668,7.046,7.046,0,0,0,2.578-.452l.333,1.474a7.97,7.97,0,0,1-3.2.591,4.642,4.642,0,0,1-3.492-1.308,4.83,4.83,0,0,1-1.268-3.51,5.476,5.476,0,0,1,1.181-3.6,4.07,4.07,0,0,1,3.342-1.533,3.562,3.562,0,0,1,3.129,1.533,5.169,5.169,0,0,1,.838,3.01Zm-2.025-.551a2.885,2.885,0,0,0-.412-1.633,1.855,1.855,0,0,0-1.692-.886,2.015,2.015,0,0,0-1.69.866,3.169,3.169,0,0,0-.629,1.651H120.1Z" transform="translate(-42.69 -18.016)" fill="#fff"/>
  </g>
  <g id="Group_1444" data-name="Group 1444" transform="translate(43.504 6.53)">
    <g id="Group_1443" data-name="Group 1443">
      <path id="Path_505" data-name="Path 505" d="M49.029,10a3.27,3.27,0,0,1-1.054,2.648,4.192,4.192,0,0,1-2.772.821,12.852,12.852,0,0,1-1.527-.078V6.981a11.268,11.268,0,0,1,1.8-.135,3.876,3.876,0,0,1,2.58.744A3.007,3.007,0,0,1,49.029,10Zm-1.1.029a2.381,2.381,0,0,0-.6-1.749,2.379,2.379,0,0,0-1.764-.609,4.418,4.418,0,0,0-.841.068v4.87a5.511,5.511,0,0,0,.705.029,2.469,2.469,0,0,0,1.85-.666,2.669,2.669,0,0,0,.649-1.947Z" transform="translate(-43.676 -6.557)" fill="#fff"/>
      <path id="Path_506" data-name="Path 506" d="M54.891,11.028a2.576,2.576,0,0,1-.619,1.778,2.208,2.208,0,0,1-1.72.715,2.1,2.1,0,0,1-1.647-.686,2.5,2.5,0,0,1-.613-1.729,2.55,2.55,0,0,1,.632-1.787,2.194,2.194,0,0,1,1.705-.7,2.147,2.147,0,0,1,1.662.685,2.479,2.479,0,0,1,.6,1.724Zm-1.083.034a2.124,2.124,0,0,0-.28-1.115,1.031,1.031,0,0,0-.936-.562,1.047,1.047,0,0,0-.957.562,2.152,2.152,0,0,0-.28,1.134,2.124,2.124,0,0,0,.28,1.115,1.053,1.053,0,0,0,.947.562,1.042,1.042,0,0,0,.936-.572,2.11,2.11,0,0,0,.29-1.125Z" transform="translate(-43.702 -6.564)" fill="#fff"/>
      <path id="Path_507" data-name="Path 507" d="M62.738,8.719l-1.469,4.7h-.956L59.7,11.376a15.261,15.261,0,0,1-.378-1.517H59.3a11.106,11.106,0,0,1-.378,1.517l-.646,2.039h-.967l-1.382-4.7H57l.531,2.232q.193.792.319,1.507h.019q.117-.589.387-1.5L58.93,8.72h.851l.638,2.193q.232.8.377,1.546h.029a14.768,14.768,0,0,1,.319-1.546l.57-2.193h1.025Z" transform="translate(-43.724 -6.565)" fill="#fff"/>
      <path id="Path_508" data-name="Path 508" d="M68.182,13.414H67.138V10.725q0-1.243-.946-1.243a.942.942,0,0,0-.754.342,1.212,1.212,0,0,0-.29.8v2.785H64.1V10.06q0-.619-.038-1.344h.917l.049.734h.029a1.508,1.508,0,0,1,.541-.567,1.764,1.764,0,0,1,.946-.264,1.5,1.5,0,0,1,1.093.425,2.067,2.067,0,0,1,.541,1.556Z" transform="translate(-43.756 -6.564)" fill="#fff"/>
      <path id="Path_509" data-name="Path 509" d="M71.084,13.406H70.041V6.556h1.043Z" transform="translate(-43.78 -6.556)" fill="#fff"/>
      <path id="Path_510" data-name="Path 510" d="M77.24,11.028a2.575,2.575,0,0,1-.619,1.778,2.209,2.209,0,0,1-1.72.715,2.1,2.1,0,0,1-1.647-.686,2.5,2.5,0,0,1-.613-1.729,2.55,2.55,0,0,1,.632-1.787,2.193,2.193,0,0,1,1.7-.7,2.15,2.15,0,0,1,1.663.685A2.479,2.479,0,0,1,77.24,11.028Zm-1.084.034a2.124,2.124,0,0,0-.28-1.115,1.029,1.029,0,0,0-.935-.562,1.045,1.045,0,0,0-.957.562,2.152,2.152,0,0,0-.28,1.134,2.124,2.124,0,0,0,.28,1.115,1.053,1.053,0,0,0,.947.562,1.04,1.04,0,0,0,.935-.572,2.1,2.1,0,0,0,.29-1.125Z" transform="translate(-43.79 -6.564)" fill="#fff"/>
      <path id="Path_511" data-name="Path 511" d="M82.315,13.414h-.937l-.078-.541h-.029a1.608,1.608,0,0,1-1.372.647,1.415,1.415,0,0,1-1.072-.425,1.334,1.334,0,0,1-.368-.956,1.459,1.459,0,0,1,.72-1.314,3.738,3.738,0,0,1,2.025-.444v-.088q0-.928-.975-.927a2.184,2.184,0,0,0-1.224.348l-.212-.685A3.011,3.011,0,0,1,80.4,8.623q1.841,0,1.843,1.942v1.729a7.334,7.334,0,0,0,.072,1.12ZM81.231,11.8v-.724q-1.727-.03-1.727.946a.707.707,0,0,0,.2.551.73.73,0,0,0,.51.183,1.054,1.054,0,0,0,.638-.217.891.891,0,0,0,.379-.739Z" transform="translate(-43.813 -6.564)" fill="#fff"/>
      <path id="Path_512" data-name="Path 512" d="M88.267,13.406h-.926l-.049-.754h-.029a1.561,1.561,0,0,1-1.508.861,1.767,1.767,0,0,1-1.41-.666,2.6,2.6,0,0,1-.56-1.729,2.722,2.722,0,0,1,.609-1.846,1.871,1.871,0,0,1,1.449-.657,1.407,1.407,0,0,1,1.323.637h.02v-2.7H88.23v5.585Q88.23,12.827,88.267,13.406Zm-1.082-1.98v-.783a1.536,1.536,0,0,0-.029-.329,1.189,1.189,0,0,0-.378-.633,1.026,1.026,0,0,0-.7-.256,1.071,1.071,0,0,0-.918.464,1.989,1.989,0,0,0-.335,1.188,1.854,1.854,0,0,0,.321,1.131,1.074,1.074,0,0,0,.912.463,1.006,1.006,0,0,0,.825-.386,1.287,1.287,0,0,0,.3-.859Z" transform="translate(-43.834 -6.556)" fill="#fff"/>
      <path id="Path_513" data-name="Path 513" d="M97.23,11.028a2.575,2.575,0,0,1-.619,1.778,2.206,2.206,0,0,1-1.72.715,2.1,2.1,0,0,1-1.647-.686,2.5,2.5,0,0,1-.613-1.729,2.55,2.55,0,0,1,.632-1.787,2.194,2.194,0,0,1,1.706-.7A2.145,2.145,0,0,1,96.63,9.3a2.479,2.479,0,0,1,.6,1.724Zm-1.082.034a2.124,2.124,0,0,0-.28-1.115,1.032,1.032,0,0,0-.937-.562,1.049,1.049,0,0,0-.957.562,2.152,2.152,0,0,0-.28,1.134,2.124,2.124,0,0,0,.28,1.115,1.067,1.067,0,0,0,1.885-.01,2.119,2.119,0,0,0,.289-1.125Z" transform="translate(-43.869 -6.564)" fill="#fff"/>
      <path id="Path_514" data-name="Path 514" d="M102.867,13.414h-1.043V10.725q0-1.243-.947-1.243a.939.939,0,0,0-.753.342,1.207,1.207,0,0,0-.29.8v2.785H98.789V10.06q0-.619-.037-1.344h.916l.049.734h.029a1.524,1.524,0,0,1,.541-.567,1.768,1.768,0,0,1,.947-.264,1.5,1.5,0,0,1,1.092.425,2.063,2.063,0,0,1,.541,1.556Z" transform="translate(-43.893 -6.564)" fill="#fff"/>
      <path id="Path_515" data-name="Path 515" d="M109.925,9.5h-1.149v2.281c0,.58.2.87.609.87a1.838,1.838,0,0,0,.465-.049l.027.792a2.345,2.345,0,0,1-.811.117,1.248,1.248,0,0,1-.965-.377,1.842,1.842,0,0,1-.349-1.266V9.5h-.686V8.714h.686v-.86l1.023-.309V8.713h1.149V9.5Z" transform="translate(-43.925 -6.56)" fill="#fff"/>
      <path id="Path_516" data-name="Path 516" d="M115.468,13.406h-1.045v-2.67q0-1.263-.945-1.263a1,1,0,0,0-1,.732,1.312,1.312,0,0,0-.049.376V13.4H111.39V6.556h1.043v2.83h.02a1.578,1.578,0,0,1,1.41-.772,1.455,1.455,0,0,1,1.074.425,2.138,2.138,0,0,1,.531,1.575v2.792Z" transform="translate(-43.942 -6.556)" fill="#fff"/>
      <path id="Path_517" data-name="Path 517" d="M121.191,10.844a2.52,2.52,0,0,1-.039.473h-3.131a1.369,1.369,0,0,0,.453,1.063,1.555,1.555,0,0,0,1.025.329,3.458,3.458,0,0,0,1.266-.222l.163.725a3.931,3.931,0,0,1-1.576.29,2.276,2.276,0,0,1-1.714-.642,2.367,2.367,0,0,1-.623-1.724,2.687,2.687,0,0,1,.58-1.768,2,2,0,0,1,1.642-.753,1.746,1.746,0,0,1,1.535.753,2.507,2.507,0,0,1,.419,1.476Zm-1-.27a1.405,1.405,0,0,0-.2-.8.912.912,0,0,0-.831-.435.991.991,0,0,0-.831.425,1.58,1.58,0,0,0-.31.812h2.173Z" transform="translate(-43.964 -6.564)" fill="#fff"/>
    </g>
  </g>
</svg>
