<svg xmlns="http://www.w3.org/2000/svg" xmlns:xlink="http://www.w3.org/1999/xlink" width="134" height="40" viewBox="0 0 134 40">
  <defs>
    <linearGradient id="linear-gradient" x1="2.472" y1="1.035" x2="2.361" y2="1.005" gradientUnits="objectBoundingBox">
      <stop offset="0" stop-color="#00a0ff"/>
      <stop offset="0.007" stop-color="#00a1ff"/>
      <stop offset="0.26" stop-color="#00beff"/>
      <stop offset="0.512" stop-color="#00d2ff"/>
      <stop offset="0.76" stop-color="#00dfff"/>
      <stop offset="1" stop-color="#00e3ff"/>
    </linearGradient>
    <linearGradient id="linear-gradient-2" x1="1.95" y1="1.879" x2="1.69" y2="1.879" gradientUnits="objectBoundingBox">
      <stop offset="0" stop-color="#ffe000"/>
      <stop offset="0.409" stop-color="#ffbd00"/>
      <stop offset="0.775" stop-color="orange"/>
      <stop offset="1" stop-color="#ff9c00"/>
    </linearGradient>
    <linearGradient id="linear-gradient-3" x1="1.926" y1="0.946" x2="1.835" y2="0.793" gradientUnits="objectBoundingBox">
      <stop offset="0" stop-color="#ff3a44"/>
      <stop offset="1" stop-color="#c31162"/>
    </linearGradient>
    <linearGradient id="linear-gradient-4" x1="1.856" y1="2.093" x2="1.897" y2="2.025" gradientUnits="objectBoundingBox">
      <stop offset="0" stop-color="#32a071"/>
      <stop offset="0.068" stop-color="#2da771"/>
      <stop offset="0.476" stop-color="#15cf74"/>
      <stop offset="0.801" stop-color="#06e775"/>
      <stop offset="1" stop-color="#00f076"/>
    </linearGradient>
  </defs>
  <g id="Group_644" data-name="Group 644" transform="translate(-0.396)">
    <rect id="Rectangle_415" data-name="Rectangle 415" width="134" height="40" rx="3" transform="translate(0.396)" fill="rgba(255,255,255,0.23)"/>
    <g id="Google_Play_Store_badge_EN" transform="translate(9.933 6.739)">
      <path id="Path_484" data-name="Path 484" d="M1684.34,277.741a3.031,3.031,0,0,1-2.263-.936,3.189,3.189,0,0,1-.914-2.285,3.119,3.119,0,0,1,.914-2.283,3.023,3.023,0,0,1,2.26-.936,3.063,3.063,0,0,1,2.263.936,3.307,3.307,0,0,1,0,4.566,3.006,3.006,0,0,1-2.26.938Zm-26.829,0a3.144,3.144,0,0,1-2.273-.924,3.219,3.219,0,0,1,2.273-5.514,3.166,3.166,0,0,1,1.269.263,2.568,2.568,0,0,1,.966.691l.06.072-.673.661-.069-.082a1.913,1.913,0,0,0-1.562-.673,2.16,2.16,0,0,0-1.557.636,2.415,2.415,0,0,0,0,3.309,2.277,2.277,0,0,0,3.157,0,1.721,1.721,0,0,0,.457-1.036H1657.4v-.929h3.085l.012.084a3.443,3.443,0,0,1,.045.467,2.8,2.8,0,0,1-.77,2.062,3.005,3.005,0,0,1-2.262.913Zm35.672-.132h-.951l-2.914-4.662.025.84v3.82h-.951v-6.173h1.085l.03.047,2.74,4.392-.025-.837v-3.6h.961Zm-15.992,0h-.964v-5.246h-1.672v-.929h4.3v.929h-1.672v5.246Zm-3.42,0h-.961v-6.175h.961Zm-5.4,0h-.961v-5.246h-1.672v-.929h4.3v.929h-1.672Zm-3.241-.01h-3.686v-6.165h3.686v.929h-2.73v1.694h2.457v.919H1662.4v1.694h2.722Zm17.656-1.433a2.127,2.127,0,0,0,1.557.646,2.074,2.074,0,0,0,1.557-.646,2.448,2.448,0,0,0,0-3.289,2.131,2.131,0,0,0-1.557-.646,2.064,2.064,0,0,0-1.555.646,2.451,2.451,0,0,0-.005,3.289Z" transform="translate(-1623.141 -271.3)" fill="#fff"/>
      <path id="Path_485" data-name="Path 485" d="M1673.66,687.7a4.238,4.238,0,1,0,4.25,4.238,4.171,4.171,0,0,0-4.25-4.238Zm0,6.8a2.575,2.575,0,1,1,2.389-2.568,2.452,2.452,0,0,1-2.389,2.568Zm-9.273-6.8a4.238,4.238,0,1,0,4.25,4.238,4.171,4.171,0,0,0-4.247-4.238Zm0,6.8a2.575,2.575,0,1,1,2.389-2.568,2.452,2.452,0,0,1-2.386,2.568Zm-11.034-5.5v1.793h4.3a3.781,3.781,0,0,1-.974,2.258,4.393,4.393,0,0,1-3.321,1.316,4.782,4.782,0,1,1,0-9.563,4.6,4.6,0,0,1,3.242,1.284l1.272-1.272a6.254,6.254,0,0,0-4.5-1.816,6.576,6.576,0,1,0,0,13.151,6.019,6.019,0,0,0,4.593-1.849,5.95,5.95,0,0,0,1.56-4.205,5.541,5.541,0,0,0-.1-1.118h-6.076V689Zm45.131,1.4a3.937,3.937,0,0,0-3.629-2.7,4.026,4.026,0,0,0-3.994,4.238,4.142,4.142,0,0,0,4.2,4.238,4.206,4.206,0,0,0,3.53-1.88l-1.438-.964a2.41,2.41,0,0,1-2.082,1.172,2.164,2.164,0,0,1-2.059-1.284l5.666-2.347-.2-.478Zm-5.778,1.416a2.326,2.326,0,0,1,2.213-2.469,1.634,1.634,0,0,1,1.572.9Zm-4.6,4.106h1.86v-12.45h-1.86Zm-3.055-7.271h-.067a2.935,2.935,0,0,0-2.235-.951,4.238,4.238,0,0,0,0,8.468,2.927,2.927,0,0,0,2.235-.964h.067v.609c0,1.617-.864,2.489-2.258,2.489a2.349,2.349,0,0,1-2.136-1.505l-1.617.676a4.045,4.045,0,0,0,3.751,2.5c2.181,0,4.029-1.284,4.029-4.417v-7.6h-1.759v.7Zm-2.136,5.855a2.577,2.577,0,0,1,0-5.134,2.382,2.382,0,0,1,2.258,2.578,2.353,2.353,0,0,1-2.263,2.55Zm24.283-11.034h-4.449v12.45h1.86V691.2h2.591a3.873,3.873,0,1,0,0-7.735Zm.055,6h-2.645V685.2h2.645a2.137,2.137,0,1,1,0,4.272Zm11.488-1.781a3.5,3.5,0,0,0-3.321,1.9l1.649.686a1.769,1.769,0,0,1,1.694-.919,1.8,1.8,0,0,1,1.96,1.6v.132a4.166,4.166,0,0,0-1.937-.477c-1.781,0-3.587.974-3.587,2.8a2.878,2.878,0,0,0,3.088,2.745,2.619,2.619,0,0,0,2.367-1.217h.067v.964h1.793v-4.769c0-2.224-1.654-3.454-3.774-3.454Zm-.234,6.818c-.609,0-1.461-.3-1.461-1.063,0-.964,1.063-1.329,1.97-1.329a3.229,3.229,0,0,1,1.694.42,2.24,2.24,0,0,1-2.2,1.963Zm10.549-6.553-2.136,5.4h-.067l-2.213-5.4h-2l3.321,7.549-1.893,4.2H1726l5.109-11.744Zm-16.747,7.969h1.86v-12.45h-1.86Z" transform="translate(-1615.73 -672.774)" fill="#fff" fill-rule="evenodd"/>
      <path id="Path_486" data-name="Path 486" d="M400.555,299.467a2.018,2.018,0,0,0-.455,1.406V322.9a1.92,1.92,0,0,0,.464,1.394l.077.067,12.34-12.34v-.276L400.632,299.4Z" transform="translate(-400.095 -298.702)" fill-rule="evenodd" fill="url(#linear-gradient)"/>
      <path id="Path_487" data-name="Path 487" d="M922.416,639.02,918.3,634.9v-.288l4.116-4.116.089.055,4.868,2.767c1.394.785,1.394,2.082,0,2.876l-4.868,2.767Z" transform="translate(-905.423 -621.578)" fill-rule="evenodd" fill="url(#linear-gradient-2)"/>
      <path id="Path_488" data-name="Path 488" d="M435.023,806.205,430.817,802,418.4,814.417a1.63,1.63,0,0,0,2.069.067l14.553-8.279" transform="translate(-417.94 -788.818)" fill-rule="evenodd" fill="url(#linear-gradient-3)"/>
      <path id="Path_489" data-name="Path 489" d="M435.023,295.08l-14.553-8.267a1.614,1.614,0,0,0-2.069.067l12.417,12.4Z" transform="translate(-417.94 -286.103)" fill-rule="evenodd" fill="url(#linear-gradient-4)"/>
      <path id="Path_490" data-name="Path 490" d="M435.323,967.7l-14.454,8.212a1.64,1.64,0,0,1-1.992.01L418.8,976l.077.067a1.644,1.644,0,0,0,1.992-.01l14.554-8.267Z" transform="translate(-418.33 -950.402)" fill-rule="evenodd" opacity="0.2"/>
      <path id="Path_491" data-name="Path 491" d="M1088.47,803.294l-4.97,2.822.089.089,4.869-2.767A1.745,1.745,0,0,0,1089.5,802,1.792,1.792,0,0,1,1088.47,803.294Z" transform="translate(-1066.519 -788.818)" fill-rule="evenodd" opacity="0.12"/>
      <path id="Path_492" data-name="Path 492" d="M402.624,286.788l19.422,11.034a1.831,1.831,0,0,1,1.041,1.294,1.745,1.745,0,0,0-1.041-1.438l-19.422-11.034c-1.393-.8-2.524-.132-2.524,1.461v.144C400.1,286.653,401.23,286,402.624,286.788Z" transform="translate(-400.095 -285.933)" fill="#fff" fill-rule="evenodd" opacity="0.25"/>
    </g>
  </g>
</svg>
